<svg xml:space="preserve" viewBox="0 0 100 100" y="0" x="0" xmlns="http://www.w3.org/2000/svg" id="圖層_1" version="1.1" preserveAspectRatio="xMidYMid" width="200" height="200" xmlns:xlink="http://www.w3.org/1999/xlink" style="margin-top:0px;margin-right:0px;margin-bottom:0px;margin-left:0px;display:block;shape-rendering:auto;background-position-x:0%;background-position-y:0%;background-size:auto;background-origin:padding-box;background-clip:border-box;fill:rgb(0, 0, 0);stroke:none;transform:none;opacity:1;background:scroll rgba(0, 0, 0, 0) none  repeat;width:200px;height:200px;;animation:none"><g class="ldl-scale" style="transform-origin:50px 50px;transform:matrix(0.8, 0, 0, 0.8, 0, 0);fill:rgb(0, 0, 0);stroke:none;opacity:1;;animation:none"><g class="ldl-ani" style="fill:rgb(0, 0, 0);stroke:none;transform:none;opacity:1;;animation:none"><g class="ldl-layer" style="fill:rgb(0, 0, 0);stroke:none;transform:none;opacity:1;;animation:none"><g class="ldl-ani" style="transform:matrix(1, 0, 0, 1, 0, 0);transform-box:view-box;opacity:1;animation-name:animate;animation-duration:1s;animation-timing-function:linear;animation-delay:-0.583333s;animation-iteration-count:infinite;animation-direction:normal;animation-fill-mode:forwards;animation-play-state:paused;transform-origin:50px 50px;fill:rgb(0, 0, 0);stroke:none;;animation:none"><path fill="#8cc63f" d="M75.717 62.519a24.436 24.436 0 0 0-3.985-5.948c-3.05-3.355-4.806-7.671-4.722-12.204.004-.209.006-.419.006-.63 0-13.165-7.579-20.965-17.016-20.965s-17.16 7.8-17.16 20.965c0 .279.003.557.01.833.111 4.492-1.673 8.765-4.677 12.107-3.818 4.247-6.102 9.631-6.102 15.492 0 4.578 1.398 8.638 3.826 12.023C30.746 90.95 39.722 95 50 95c15.425 0 27.929-9.112 27.929-22.832.001-3.426-.8-6.68-2.212-9.649z" style="stroke-width:1px;fill:rgb(140, 198, 63);stroke:none;transform:none;opacity:1;;animation:none"></path></g></g>
<g class="ldl-layer" style="fill:rgb(0, 0, 0);stroke:none;transform:none;opacity:1;;animation:none"><g class="ldl-ani" style="transform:matrix(1, 0, 0, 1, 0, 0);transform-box:view-box;opacity:1;animation-name:animate;animation-duration:1s;animation-timing-function:linear;animation-delay:-0.666667s;animation-iteration-count:infinite;animation-direction:normal;animation-fill-mode:forwards;animation-play-state:paused;transform-origin:50px 50px;fill:rgb(0, 0, 0);stroke:none;;animation:none"><path opacity=".2" d="M75.717 62.519C73.062 79.148 59.98 89.818 44.229 89.818c-6.822 0-13.14-2.008-18.332-5.627C30.746 90.95 39.722 95 50 95c15.425 0 27.929-9.112 27.929-22.832.001-3.426-.8-6.68-2.212-9.649z" style="stroke-width:1px;fill:rgb(0, 0, 0);stroke:none;transform:none;opacity:0.2;;animation:none"></path></g></g>
<g class="ldl-layer" style="fill:rgb(0, 0, 0);stroke:none;transform:none;opacity:1;;animation:none"><g class="ldl-ani" style="transform:matrix(1, 0, 0, 1, 0, 0);transform-box:view-box;opacity:1;animation-name:animate;animation-duration:1s;animation-timing-function:linear;animation-delay:-0.75s;animation-iteration-count:infinite;animation-direction:normal;animation-fill-mode:forwards;animation-play-state:paused;transform-origin:50px 50px;fill:rgb(0, 0, 0);stroke:none;;animation:none"><path fill="#603813" d="M46.645 11.097c-2.92-3.988-7.257-5.16-12.11-6.097-1.342 1.42-1.7 3.036-.441 4.939 4.26.887 8.165 1.419 11.049 4.678a22.981 22.981 0 0 1 3.755 5.877 24.8 24.8 0 0 1 1.18 3.248c.33 1.154.196 2.574 1.526 2.872.315-2.391-.523-5.427-1.179-7.7-.809-2.793-2.059-5.468-3.78-7.817z" style="stroke-width:1px;fill:rgb(96, 56, 19);stroke:none;transform:none;opacity:1;;animation:none"></path></g></g>
<g class="ldl-layer" style="fill:rgb(0, 0, 0);stroke:none;transform:none;opacity:1;;animation:none"><g class="ldl-ani" style="transform:matrix(1, 0, 0, 1, 0, 0);transform-box:view-box;opacity:1;animation-name:animate;animation-duration:1s;animation-timing-function:linear;animation-delay:-0.833333s;animation-iteration-count:infinite;animation-direction:normal;animation-fill-mode:forwards;animation-play-state:paused;transform-origin:50px 50px;fill:rgb(0, 0, 0);stroke:none;;animation:none"><path fill="#009245" d="M52.424 12.511c4.007-4.739 10.66-7.079 16.751-5.891.213 1.259-.179 2.547-.731 3.699-2.25 4.687-7.428 7.804-12.623 7.596-1.069-.043-2.17-.209-3.189.117s-1.92 1.368-1.636 2.399c-1.137-2.667-.38-5.781 1.428-7.92z" style="stroke-width:1px;fill:rgb(0, 146, 69);stroke:none;transform:none;opacity:1;;animation:none"></path></g></g>
<g class="ldl-layer" style="fill:rgb(0, 0, 0);stroke:none;transform:none;opacity:1;;animation:none"><g class="ldl-ani" style="transform:matrix(1, 0, 0, 1, 0, 0);transform-box:view-box;opacity:1;animation-name:animate;animation-duration:1s;animation-timing-function:linear;animation-delay:-0.916667s;animation-iteration-count:infinite;animation-direction:normal;animation-fill-mode:forwards;animation-play-state:paused;transform-origin:50px 50px;fill:rgb(0, 0, 0);stroke:none;;animation:none"><path fill="#fff" stroke-miterlimit="10" stroke-linecap="round" stroke-width="4.124" stroke="#fff" d="M44.628 30.484c-3.388 1.42-5.935 7.003-5.587 9.587" style="stroke-width:4.124px;fill:rgb(255, 255, 255);stroke:rgb(255, 255, 255);transform:none;opacity:1;;animation:none"></path></g></g>
<g class="ldl-layer" style="fill:rgb(0, 0, 0);stroke:none;transform:none;opacity:1;;animation:none"><g class="ldl-ani" style="transform:matrix(1, 0, 0, 1, 0, 0);transform-box:view-box;opacity:1;animation-name:animate;animation-duration:1s;animation-timing-function:linear;animation-delay:-1s;animation-iteration-count:infinite;animation-direction:normal;animation-fill-mode:forwards;animation-play-state:paused;transform-origin:50px 50px;fill:rgb(0, 0, 0);stroke:none;;animation:none"><circle r="2.451" fill="#fff" cy="47.36" cx="38.793" transform="matrix(0.8629019856452942,-0.5053712725639343,0.5053712725639343,0.8629019856452942,-18.614835739135742,26.095901489257812)" style="stroke-width:1px;fill:rgb(255, 255, 255);stroke:none;transform:matrix(0.862902, -0.505371, 0.505371, 0.862902, -18.6148, 26.0959);opacity:1;;animation:none"></circle></g></g>
<metadata xmlns:d="https://loading.io/stock/" style="fill:rgb(0, 0, 0);stroke:none;transform:none;opacity:1;;animation:none"></metadata></g></g>
<STYLE type="text/css">@keyframes animate { 0.00% {animation-timing-function: cubic-bezier(0.33,0.00,0.67,0.00);transform: translate(0.00px,0.00px) rotate(0.00deg) scale(1.00, 1.00) skew(0deg, 0.00deg) ;opacity: 1.00;}50.00% {animation-timing-function: cubic-bezier(0.33,0.00,0.67,0.00);transform: translate(0.00px,0.00px) rotate(0.00deg) ;}100.00% {animation-timing-function: cubic-bezier(0.33,0.00,0.67,0.00);transform: translate(0.00px,0.00px) rotate(0.00deg) ;} }</STYLE><!-- [ldio] generated by https://loading.io --></svg>